<svg xmlns="http://www.w3.org/2000/svg" version="1.1" xmlns:xlink="http://www.w3.org/1999/xlink" xmlns:svgjs="http://svgjs.dev/svgjs" width="1500" height="935" viewBox="0 0 1500 935"><g transform="matrix(1,0,0,1,-0.9090909090909918,0.3785425101214628)"><svg viewBox="0 0 396 247" data-background-color="#ffffff" preserveAspectRatio="xMidYMid meet" height="935" width="1500" xmlns="http://www.w3.org/2000/svg" xmlns:xlink="http://www.w3.org/1999/xlink"><g id="tight-bounds" transform="matrix(1,0,0,1,0.2400000000000091,-0.09999999999999432)"><svg viewBox="0 0 395.52 247.2" height="247.2" width="395.52"><g><svg></svg></g><g><svg viewBox="0 0 395.52 247.2" height="247.2" width="395.52"><g transform="matrix(1,0,0,1,75.54432,88.10166970954357)"><svg viewBox="0 0 244.43135999999998 70.99666058091285" height="70.99666058091285" width="244.43135999999998"><g><svg viewBox="0 0 244.43135999999998 70.99666058091285" height="70.99666058091285" width="244.43135999999998"><g><svg viewBox="0 0 244.43135999999998 70.99666058091285" height="70.99666058091285" width="244.43135999999998"><g id="textblocktransform"><svg viewBox="0 0 244.43135999999998 70.99666058091285" height="70.99666058091285" width="244.43135999999998" id="textblock"><g><svg viewBox="0 0 244.43135999999998 70.99666058091285" height="70.99666058091285" width="244.43135999999998"><g transform="matrix(1,0,0,1,0,0)"><svg width="244.43135999999998" viewBox="1.7999999999999998 -28 96.39 28" height="70.99666058091285" data-palette-color="#000000"><path d="M18.2-22Q18.2-20.85 18-20L18-20Q18.2-19.2 18.2-18L18.2-18Q18.2-16.85 18-16L18-16 16-16Q16.2-15.2 16.2-14L16.2-14Q16.2-12.85 16-12L16-12 6-12Q6.2-11.2 6.2-10L6.2-10Q6.2-8.85 6-8L6-8Q6.2-7.2 6.2-6L6.2-6Q6.2-4.85 6-4L6-4Q6.2-3.2 6.2-2L6.2-2Q6.2-0.85 6 0L6 0 2 0Q1.8-0.85 1.8-2L1.8-2Q1.8-3.2 2-4L2-4Q1.8-4.85 1.8-6L1.8-6Q1.8-7.2 2-8L2-8Q1.8-8.85 1.8-10L1.8-10Q1.8-11.2 2-12L2-12Q1.8-12.85 1.8-14L1.8-14Q1.8-15.2 2-16L2-16Q1.8-16.85 1.8-18L1.8-18Q1.8-19.2 2-20L2-20Q1.8-20.85 1.8-22L1.8-22Q1.8-23.2 2-24L2-24Q1.8-24.85 1.8-26L1.8-26Q1.8-27.2 2-28L2-28 16-28Q16.2-27.2 16.2-26L16.2-26Q16.2-24.85 16-24L16-24 18-24Q18.2-23.2 18.2-22L18.2-22ZM14-16Q13.8-16.85 13.8-18L13.8-18Q13.8-19.2 14-20L14-20Q13.8-20.85 13.8-22L13.8-22Q13.8-23.2 14-24L14-24 6-24Q6.2-23.2 6.2-22L6.2-22Q6.2-20.85 6-20L6-20Q6.2-19.2 6.2-18L6.2-18Q6.2-16.85 6-16L6-16 14-16ZM36.5-4L38-4Q38.2-3.2 38.2-2L38.2-2Q38.2-0.85 38 0L38 0 34 0Q33.8-0.85 33.8-2L33.8-2Q33.8-3.2 34-4L34-4 32.5-4Q32.3-4.85 32.3-6L32.3-6Q32.3-7.2 32.5-8L32.5-8 31-8Q30.8-8.85 30.8-10L30.8-10Q30.8-11.2 31-12L31-12 26-12Q26.2-11.2 26.2-10L26.2-10Q26.2-8.85 26-8L26-8Q26.2-7.2 26.2-6L26.2-6Q26.2-4.85 26-4L26-4Q26.2-3.2 26.2-2L26.2-2Q26.2-0.85 26 0L26 0 22 0Q21.8-0.85 21.8-2L21.8-2Q21.8-3.2 22-4L22-4Q21.8-4.85 21.8-6L21.8-6Q21.8-7.2 22-8L22-8Q21.8-8.85 21.8-10L21.8-10Q21.8-11.2 22-12L22-12Q21.8-12.85 21.8-14L21.8-14Q21.8-15.2 22-16L22-16Q21.8-16.85 21.8-18L21.8-18Q21.8-19.2 22-20L22-20Q21.8-20.85 21.8-22L21.8-22Q21.8-23.2 22-24L22-24Q21.8-24.85 21.8-26L21.8-26Q21.8-27.2 22-28L22-28 36-28Q36.2-27.2 36.2-26L36.2-26Q36.2-24.85 36-24L36-24 38-24Q38.2-23.2 38.2-22L38.2-22Q38.2-20.85 38-20L38-20 37-20Q37.2-19.2 37.2-18L37.2-18Q37.2-16.85 37-16L37-16 34-16Q34.2-15.2 34.2-14L34.2-14Q34.2-12.85 34-12L34-12 35-12Q35.2-11.2 35.2-10L35.2-10Q35.2-8.85 35-8L35-8 36.5-8Q36.7-7.2 36.7-6L36.7-6Q36.7-4.85 36.5-4L36.5-4ZM33-16Q32.8-16.85 32.8-18L32.8-18Q32.8-19.2 33-20L33-20Q32.8-20.85 32.8-22L32.8-22Q32.8-23.2 33-24L33-24 26-24Q26.2-23.2 26.2-22L26.2-22Q26.2-20.85 26-20L26-20Q26.2-19.2 26.2-18L26.2-18Q26.2-16.85 26-16L26-16 33-16ZM58.2-6Q58.2-4.85 58-4L58-4Q58.2-3.2 58.2-2L58.2-2Q58.2-0.85 58 0L58 0 54 0Q53.8-0.85 53.8-2L53.8-2Q53.8-3.2 54-4L54-4Q53.8-4.85 53.8-6L53.8-6Q53.8-7.2 54-8L54-8 46-8Q46.2-7.2 46.2-6L46.2-6Q46.2-4.85 46-4L46-4Q46.2-3.2 46.2-2L46.2-2Q46.2-0.85 46 0L46 0 42 0Q41.8-0.85 41.8-2L41.8-2Q41.8-3.2 42-4L42-4Q41.8-4.85 41.8-6L41.8-6Q41.8-7.2 42-8L42-8 43.5-8Q43.3-8.85 43.3-10L43.3-10Q43.3-11.2 43.5-12L43.5-12Q43.3-12.85 43.3-14L43.3-14Q43.3-15.2 43.5-16L43.5-16 44.5-16Q44.3-16.85 44.3-18L44.3-18Q44.3-19.2 44.5-20L44.5-20 46-20Q45.8-20.85 45.8-22L45.8-22Q45.8-23.2 46-24L46-24 47-24Q46.8-24.85 46.8-26L46.8-26Q46.8-27.2 47-28L47-28 53-28Q53.2-27.2 53.2-26L53.2-26Q53.2-24.85 53-24L53-24 54-24Q54.2-23.2 54.2-22L54.2-22Q54.2-20.85 54-20L54-20 55.5-20Q55.7-19.2 55.7-18L55.7-18Q55.7-16.85 55.5-16L55.5-16 56.5-16Q56.7-15.2 56.7-14L56.7-14Q56.7-12.85 56.5-12L56.5-12Q56.7-11.2 56.7-10L56.7-10Q56.7-8.85 56.5-8L56.5-8 58-8Q58.2-7.2 58.2-6L58.2-6ZM52.5-12Q52.3-12.85 52.3-14L52.3-14Q52.3-15.2 52.5-16L52.5-16 51.5-16Q51.3-16.85 51.3-18L51.3-18Q51.3-19.2 51.5-20L51.5-20 48.5-20Q48.7-19.2 48.7-18L48.7-18Q48.7-16.85 48.5-16L48.5-16 47.5-16Q47.7-15.2 47.7-14L47.7-14Q47.7-12.85 47.5-12L47.5-12 52.5-12ZM78.19-18Q78.19-16.85 77.99-16L77.99-16 75.99-16Q76.19-15.2 76.19-14L76.19-14Q76.19-12.85 75.99-12L75.99-12 77.99-12Q78.19-11.2 78.19-10L78.19-10Q78.19-8.85 77.99-8L77.99-8Q78.19-7.2 78.19-6L78.19-6Q78.19-4.85 77.99-4L77.99-4 75.99-4Q76.19-3.2 76.19-2L76.19-2Q76.19-0.85 75.99 0L75.99 0 61.99 0Q61.79-0.85 61.79-2L61.79-2Q61.79-3.2 61.99-4L61.99-4Q61.79-4.85 61.79-6L61.79-6Q61.79-7.2 61.99-8L61.99-8Q61.79-8.85 61.79-10L61.79-10Q61.79-11.2 61.99-12L61.99-12Q61.79-12.85 61.79-14L61.79-14Q61.79-15.2 61.99-16L61.99-16Q61.79-16.85 61.79-18L61.79-18Q61.79-19.2 61.99-20L61.99-20Q61.79-20.85 61.79-22L61.79-22Q61.79-23.2 61.99-24L61.99-24Q61.79-24.85 61.79-26L61.79-26Q61.79-27.2 61.99-28L61.99-28 75.99-28Q76.19-27.2 76.19-26L76.19-26Q76.19-24.85 75.99-24L75.99-24 77.99-24Q78.19-23.2 78.19-22L78.19-22Q78.19-20.85 77.99-20L77.99-20Q78.19-19.2 78.19-18L78.19-18ZM73.99-16Q73.79-16.85 73.79-18L73.79-18Q73.79-19.2 73.99-20L73.99-20Q73.79-20.85 73.79-22L73.79-22Q73.79-23.2 73.99-24L73.99-24 65.99-24Q66.19-23.2 66.19-22L66.19-22Q66.19-20.85 65.99-20L65.99-20Q66.19-19.2 66.19-18L66.19-18Q66.19-16.85 65.99-16L65.99-16 73.99-16ZM73.99-8Q73.79-8.85 73.79-10L73.79-10Q73.79-11.2 73.99-12L73.99-12 65.99-12Q66.19-11.2 66.19-10L66.19-10Q66.19-8.85 65.99-8L65.99-8Q66.19-7.2 66.19-6L66.19-6Q66.19-4.85 65.99-4L65.99-4 73.99-4Q73.79-4.85 73.79-6L73.79-6Q73.79-7.2 73.99-8L73.99-8ZM97.99-24Q98.19-23.2 98.19-22L98.19-22Q98.19-20.85 97.99-20L97.99-20Q98.19-19.2 98.19-18L98.19-18Q98.19-16.85 97.99-16L97.99-16Q98.19-15.2 98.19-14L98.19-14Q98.19-12.85 97.99-12L97.99-12Q98.19-11.2 98.19-10L98.19-10Q98.19-8.85 97.99-8L97.99-8Q98.19-7.2 98.19-6L98.19-6Q98.19-4.85 97.99-4L97.99-4 95.99-4Q96.19-3.2 96.19-2L96.19-2Q96.19-0.85 95.99 0L95.99 0 83.99 0Q83.79-0.85 83.79-2L83.79-2Q83.79-3.2 83.99-4L83.99-4 81.99-4Q81.79-4.85 81.79-6L81.79-6Q81.79-7.2 81.99-8L81.99-8Q81.79-8.85 81.79-10L81.79-10Q81.79-11.2 81.99-12L81.99-12Q81.79-12.85 81.79-14L81.79-14Q81.79-15.2 81.99-16L81.99-16Q81.79-16.85 81.79-18L81.79-18Q81.79-19.2 81.99-20L81.99-20Q81.79-20.85 81.79-22L81.79-22Q81.79-23.2 81.99-24L81.99-24Q81.79-24.85 81.79-26L81.79-26Q81.79-27.2 81.99-28L81.99-28 85.99-28Q86.19-27.2 86.19-26L86.19-26Q86.19-24.85 85.99-24L85.99-24Q86.19-23.2 86.19-22L86.19-22Q86.19-20.85 85.99-20L85.99-20Q86.19-19.2 86.19-18L86.19-18Q86.19-16.85 85.99-16L85.99-16Q86.19-15.2 86.19-14L86.19-14Q86.19-12.85 85.99-12L85.99-12Q86.19-11.2 86.19-10L86.19-10Q86.19-8.85 85.99-8L85.99-8Q86.19-7.2 86.19-6L86.19-6Q86.19-4.85 85.99-4L85.99-4 93.99-4Q93.79-4.85 93.79-6L93.79-6Q93.79-7.2 93.99-8L93.99-8Q93.79-8.85 93.79-10L93.79-10Q93.79-11.2 93.99-12L93.99-12Q93.79-12.85 93.79-14L93.79-14Q93.79-15.2 93.99-16L93.99-16Q93.79-16.85 93.79-18L93.79-18Q93.79-19.2 93.99-20L93.99-20Q93.79-20.85 93.79-22L93.79-22Q93.79-23.2 93.99-24L93.99-24Q93.79-24.85 93.79-26L93.79-26Q93.79-27.2 93.99-28L93.99-28 97.99-28Q98.19-27.2 98.19-26L98.19-26Q98.19-24.85 97.99-24L97.99-24Z" opacity="1" transform="matrix(1,0,0,1,0,0)" fill="#000000" class="wordmark-text-0" data-fill-palette-color="primary" id="text-0"></path></svg></g></svg></g></svg></g></svg></g></svg></g></svg></g><path d="M206.487 82.102L206.487 25.362 10.012 25.362 10.012 221.838 206.487 221.838 206.487 165.098 200.085 165.098 200.085 215.435 16.415 215.435 16.415 31.765 200.085 31.765 200.085 82.102Z" fill="#000000" stroke="transparent" data-fill-palette-color="tertiary"></path></svg></g><defs></defs></svg><rect width="395.52" height="247.2" fill="none" stroke="none" visibility="hidden"></rect></g></svg></g></svg>